<?xml version="1.0" encoding="iso-8859-1"?>
<!-- Generator: Adobe Illustrator 19.0.0, SVG Export Plug-In . SVG Version: 6.00 Build 0)  -->
<svg version="1.1" id="Layer_1" xmlns="http://www.w3.org/2000/svg" xmlns:xlink="http://www.w3.org/1999/xlink" x="0px" y="0px"
	 viewBox="0 0 512 512" style="enable-background:new 0 0 512 512;" xml:space="preserve">
<g>
	<path style="fill:#E8EDEE;" d="M167.722,379.586c-14.627,0-26.483-11.855-26.483-26.483V141.241
		c0-14.627,11.855-26.483,26.483-26.483h141.241V26.147C308.963,11.705,297.258,0,282.816,0H52.628
		C38.186,0,26.481,11.705,26.481,26.147v459.705c0,14.442,11.705,26.147,26.147,26.147h230.188
		c14.442,0,26.147-11.705,26.147-26.147V379.586H167.722L167.722,379.586z"/>
	<g>
		<path style="fill:#B0B6BB;" d="M203.032,35.31h-44.138c-4.873,0-8.828-3.946-8.828-8.828s3.955-8.828,8.828-8.828h44.138
			c4.873,0,8.828,3.946,8.828,8.828S207.905,35.31,203.032,35.31"/>
		<path style="fill:#B0B6BB;" d="M132.412,35.31h-8.828c-4.873,0-8.828-3.946-8.828-8.828s3.955-8.828,8.828-8.828h8.828
			c4.873,0,8.828,3.946,8.828,8.828S137.284,35.31,132.412,35.31"/>
		<path style="fill:#B0B6BB;" d="M17.653,97.103c-4.873,0-8.828-3.946-8.828-8.828v-8.828c0-4.882,3.955-8.828,8.828-8.828
			s8.828,3.946,8.828,8.828v8.828C26.481,93.158,22.526,97.103,17.653,97.103"/>
		<path style="fill:#B0B6BB;" d="M17.653,132.414c-4.873,0-8.828-3.946-8.828-8.828v-8.828c0-4.882,3.955-8.828,8.828-8.828
			s8.828,3.946,8.828,8.828v8.828C26.481,128.468,22.526,132.414,17.653,132.414"/>
		<path style="fill:#B0B6BB;" d="M17.653,167.724c-4.873,0-8.828-3.946-8.828-8.828v-8.828c0-4.882,3.955-8.828,8.828-8.828
			s8.828,3.946,8.828,8.828v8.828C26.481,163.778,22.526,167.724,17.653,167.724"/>
		<path style="fill:#B0B6BB;" d="M194.205,476.69c0,14.627-11.855,26.483-26.483,26.483c-14.627,0-26.483-11.855-26.483-26.483
			c0-14.627,11.855-26.483,26.483-26.483C182.349,450.207,194.205,462.062,194.205,476.69"/>
	</g>
	<path style="fill:#25C3AB;" d="M476.687,379.586H167.722c-14.627,0-26.483-11.855-26.483-26.483V141.241
		c0-14.627,11.855-26.483,26.483-26.483h308.966c14.627,0,26.483,11.855,26.483,26.483v211.862
		C503.17,367.731,491.315,379.586,476.687,379.586"/>
	<g>
		<polygon style="fill:#13A085;" points="141.244,211.862 503.175,211.862 503.175,158.897 141.244,158.897 		"/>
		<polygon style="fill:#13A085;" points="353.106,344.276 467.864,344.276 467.864,282.483 353.106,282.483 		"/>
		<path style="fill:#13A085;" d="M220.687,264.828H176.55c-4.873,0-8.828-3.946-8.828-8.828s3.955-8.828,8.828-8.828h44.138
			c4.873,0,8.828,3.946,8.828,8.828S225.56,264.828,220.687,264.828"/>
		<path style="fill:#13A085;" d="M308.356,264.828h-57.459c-4.873,0-8.828-3.946-8.828-8.828s3.955-8.828,8.828-8.828h57.459
			c4.873,0,8.828,3.946,8.828,8.828S313.229,264.828,308.356,264.828"/>
		<path style="fill:#13A085;" d="M263.61,300.138h-87.058c-4.882,0-8.828-3.946-8.828-8.828c0-4.882,3.946-8.828,8.828-8.828h87.058
			c4.873,0,8.828,3.946,8.828,8.828C272.437,296.192,268.483,300.138,263.61,300.138"/>
		<path style="fill:#13A085;" d="M308.356,300.138H291.31c-4.873,0-8.828-3.946-8.828-8.828c0-4.882,3.955-8.828,8.828-8.828h17.046
			c4.873,0,8.828,3.946,8.828,8.828C317.184,296.192,313.229,300.138,308.356,300.138"/>
	</g>
	<path style="fill:#38454F;" d="M167.722,379.586c-14.627,0-26.483-11.855-26.483-26.483V141.241
		c0-14.627,11.855-26.483,26.483-26.483h141.241V52.966H26.481v388.414h282.483v-61.793H167.722z"/>
</g>
<g>
</g>
<g>
</g>
<g>
</g>
<g>
</g>
<g>
</g>
<g>
</g>
<g>
</g>
<g>
</g>
<g>
</g>
<g>
</g>
<g>
</g>
<g>
</g>
<g>
</g>
<g>
</g>
<g>
</g>
</svg>
